<?xml version="1.0" standalone="no"?>
<!DOCTYPE svg PUBLIC "-//W3C//DTD SVG 20010904//EN"
 "http://www.w3.org/TR/2001/REC-SVG-20010904/DTD/svg10.dtd">
<svg version="1.0" xmlns="http://www.w3.org/2000/svg"
 width="500.000000pt" height="500.000000pt" viewBox="0 0 500.000000 500.000000"
 preserveAspectRatio="xMidYMid meet">

<g transform="translate(0.000000,500.000000) scale(0.100000,-0.100000)"
fill="#000000" stroke="none">
<path d="M2580 3315 c-13 -16 -6 -35 13 -34 9 0 9 2 0 6 -9 3 -10 10 -3 24 13
23 7 25 -10 4z"/>
<path d="M970 3269 c0 -5 5 -7 10 -4 6 3 10 8 10 11 0 2 -4 4 -10 4 -5 0 -10
-5 -10 -11z"/>
<path d="M2531 3134 c0 -11 3 -14 6 -6 3 7 2 16 -1 19 -3 4 -6 -2 -5 -13z"/>
<path d="M2022 3105 c4 -4 0 -14 -10 -21 -14 -10 -15 -15 -4 -26 11 -11 12
-10 6 6 -5 13 -4 17 3 13 6 -4 13 0 17 8 3 8 0 17 -7 21 -7 4 -9 4 -5 -1z"/>
<path d="M2486 3034 c-9 -20 -14 -39 -11 -42 6 -7 6 -6 28 41 22 48 6 49 -17
1z"/>
<path d="M2832 3050 c0 -14 2 -19 5 -12 2 6 2 18 0 25 -3 6 -5 1 -5 -13z"/>
<path d="M3384 3043 c16 -19 17 -23 4 -23 -20 0 -29 -22 -17 -41 7 -11 9 -10
9 5 0 10 7 24 16 30 14 10 13 14 -8 31 l-23 20 19 -22z"/>
<path d="M2460 2970 c0 -5 5 -10 11 -10 5 0 7 5 4 10 -3 6 -8 10 -11 10 -2 0
-4 -4 -4 -10z"/>
<path d="M2409 2843 c-35 -40 -48 -68 -39 -83 6 -9 11 -7 19 9 7 12 9 26 6 31
-3 6 -2 10 2 10 5 0 17 14 26 30 22 37 18 38 -14 3z"/>
<path d="M3211 2854 c0 -11 3 -14 6 -6 3 7 2 16 -1 19 -3 4 -6 -2 -5 -13z"/>
<path d="M2350 2728 c0 -7 -7 -26 -15 -42 -23 -44 -12 -41 13 3 14 25 19 42
12 46 -5 3 -10 0 -10 -7z"/>
<path d="M3175 2720 c-4 -11 -11 -17 -17 -14 -7 5 -8 2 -3 -6 6 -10 11 -9 22
5 13 19 17 35 9 35 -3 0 -8 -9 -11 -20z"/>
<path d="M3335 2701 c3 -5 -5 -17 -17 -25 -12 -9 -19 -19 -15 -22 4 -4 15 4
26 17 23 27 26 39 10 39 -5 0 -8 -4 -4 -9z"/>
<path d="M3110 2646 c-17 -25 -28 -46 -24 -46 4 0 0 -8 -8 -17 -17 -20 -51
-83 -44 -83 4 0 31 44 74 120 14 25 30 48 36 52 6 4 8 10 4 13 -3 4 -20 -14
-38 -39z"/>
<path d="M3280 2618 c-12 -22 -12 -22 6 -6 10 10 15 20 12 24 -4 3 -12 -5 -18
-18z"/>
<path d="M3238 2553 c-17 -20 -41 -63 -35 -63 3 0 16 18 31 40 28 42 29 52 4
23z"/>
<path d="M1254 2534 c-18 -14 -18 -15 4 -4 12 6 22 13 22 15 0 8 -5 6 -26 -11z"/>
<path d="M1223 2493 c-3 -10 -8 -22 -11 -27 -3 -5 0 -6 5 -3 11 7 25 47 17 47
-3 0 -7 -8 -11 -17z"/>
<path d="M1656 2325 c-3 -9 -6 -22 -5 -28 0 -7 5 -1 10 12 5 13 8 26 5 28 -2
2 -6 -3 -10 -12z"/>
<path d="M1621 2234 c0 -11 3 -14 6 -6 3 7 2 16 -1 19 -3 4 -6 -2 -5 -13z"/>
<path d="M2046 2205 c-9 -26 -7 -32 5 -12 6 10 9 21 6 23 -2 3 -7 -2 -11 -11z"/>
<path d="M1611 2194 c0 -11 3 -14 6 -6 3 7 2 16 -1 19 -3 4 -6 -2 -5 -13z"/>
<path d="M2615 2190 c-3 -6 1 -7 9 -4 18 7 21 14 7 14 -6 0 -13 -4 -16 -10z"/>
<path d="M3239 2167 c-15 -12 -32 -32 -38 -45 l-12 -23 31 16 c18 9 29 19 26
22 -3 3 -14 0 -23 -8 -16 -12 -15 -11 1 8 10 13 23 20 27 17 5 -3 9 0 9 6 0 6
10 15 23 20 20 8 20 9 2 9 -11 0 -32 -10 -46 -22z"/>
<path d="M1591 2164 c0 -11 3 -14 6 -6 3 7 2 16 -1 19 -3 4 -6 -2 -5 -13z"/>
<path d="M1744 2173 c3 -6 -4 -20 -18 -30 -13 -10 -26 -30 -30 -43 -6 -24 -6
-24 9 2 11 19 20 25 33 21 9 -3 14 -3 10 2 -4 4 -3 14 4 22 8 11 8 17 -2 26
-9 8 -11 9 -6 0z"/>
<path d="M2557 2150 c-8 -11 -17 -17 -21 -13 -4 4 -4 0 -1 -10 6 -15 8 -15 23
0 10 9 15 19 14 21 -2 3 2 9 10 13 9 6 9 9 1 9 -6 0 -18 -9 -26 -20z"/>
<path d="M3526 2155 c-9 -26 -7 -32 5 -12 6 10 9 21 6 23 -2 3 -7 -2 -11 -11z"/>
<path d="M2025 2133 c-13 -32 -22 -104 -13 -109 4 -3 8 13 8 36 0 23 5 50 11
62 6 11 9 22 6 24 -2 3 -8 -3 -12 -13z"/>
<path d="M1560 2112 c-14 -13 -19 -22 -10 -20 19 4 43 26 38 36 -2 4 -14 -3
-28 -16z"/>
<path d="M2517 2113 c-4 -3 -7 -11 -7 -17 0 -6 5 -5 12 2 6 6 9 14 7 17 -3 3
-9 2 -12 -2z"/>
<path d="M2159 2108 c-7 -25 -7 -48 1 -53 6 -4 10 7 10 24 0 17 -2 31 -5 31
-3 0 -5 -1 -6 -2z"/>
<path d="M1539 2078 c-1 -2 -2 -23 -4 -48 -1 -25 0 -36 2 -25 3 11 10 26 15
33 7 8 7 12 -1 12 -7 0 -9 5 -6 10 4 6 11 7 17 4 7 -4 8 -2 4 4 -6 11 -24 17
-27 10z"/>
<path d="M3492 2075 c4 -4 -2 -23 -13 -42 -17 -27 -19 -37 -10 -46 9 -9 10 -8
5 7 -6 16 -4 18 10 13 12 -5 16 -3 13 5 -2 7 0 23 4 35 5 15 4 25 -4 29 -7 4
-9 4 -5 -1z"/>
<path d="M2490 2045 c0 -8 2 -15 4 -15 2 0 6 7 10 15 3 8 1 15 -4 15 -6 0 -10
-7 -10 -15z"/>
<path d="M2150 2010 c0 -5 5 -10 11 -10 5 0 7 5 4 10 -3 6 -8 10 -11 10 -2 0
-4 -4 -4 -10z"/>
<path d="M1501 1958 c-8 -13 -9 -24 -3 -30 6 -6 12 0 16 17 9 35 4 40 -13 13z"/>
<path d="M4081 1954 c0 -11 3 -14 6 -6 3 7 2 16 -1 19 -3 4 -6 -2 -5 -13z"/>
<path d="M1470 1896 c-9 -11 -9 -19 0 -33 10 -16 10 -15 5 5 -5 16 -2 22 9 22
9 0 16 5 16 10 0 15 -16 12 -30 -4z"/>
<path d="M1448 1823 c-17 -20 -38 -58 -38 -70 0 -7 11 7 45 60 20 30 16 36 -7
10z"/>
<path d="M1382 1715 c-7 -15 -8 -25 -2 -25 6 0 10 7 10 15 0 8 5 15 10 15 6 0
10 5 10 10 0 19 -17 10 -28 -15z"/>
<path d="M1350 1655 c-8 -9 -8 -15 -2 -15 12 0 26 19 19 26 -2 2 -10 -2 -17
-11z"/>
<path d="M1325 1620 c3 -5 8 -10 11 -10 2 0 4 5 4 10 0 6 -5 10 -11 10 -5 0
-7 -4 -4 -10z"/>
<path d="M1291 1563 c-10 -26 -10 -27 4 -9 8 11 15 23 15 28 0 15 -7 8 -19
-19z"/>
<path d="M1256 1533 c-6 -14 -5 -15 5 -6 7 7 10 15 7 18 -3 3 -9 -2 -12 -12z"/>
</g>
</svg>
